<?xml version="1.0" standalone="no"?>
<!DOCTYPE svg PUBLIC "-//W3C//DTD SVG 1.1//EN" "http://www.w3.org/Graphics/SVG/1.1/DTD/svg11.dtd" >
<!--
2013-9-30: Created.
-->
<svg>
<metadata>
Created by iconfont
</metadata>
<defs>

<font id="iconfont" horiz-adv-x="1024" >
  <font-face
    font-family="iconfont"
    font-weight="500"
    font-stretch="normal"
    units-per-em="1024"
    ascent="896"
    descent="-128"
  />
    <missing-glyph />
    
    <glyph glyph-name="x" unicode="x" horiz-adv-x="1001"
d="M281 543q-27 -1 -53 -1h-83q-18 0 -36.5 -6t-32.5 -18.5t-23 -32t-9 -45.5v-76h912v41q0 16 -0.5 30t-0.5 18q0 13 -5 29t-17 29.5t-31.5 22.5t-49.5 9h-133v-97h-438v97zM955 310v-52q0 -23 0.5 -52t0.5 -58t-10.5 -47.5t-26 -30t-33 -16t-31.5 -4.5q-14 -1 -29.5 -0.5
t-29.5 0.5h-32l-45 128h-439l-44 -128h-29h-34q-20 0 -45 1q-25 0 -41 9.5t-25.5 23t-13.5 29.5t-4 30v167h911zM163 247q-12 0 -21 -8.5t-9 -21.5t9 -21.5t21 -8.5q13 0 22 8.5t9 21.5t-9 21.5t-22 8.5zM316 123q-8 -26 -14 -48q-5 -19 -10.5 -37t-7.5 -25t-3 -15t1 -14.5
t9.5 -10.5t21.5 -4h37h67h81h80h64h36q23 0 34 12t2 38q-5 13 -9.5 30.5t-9.5 34.5q-5 19 -11 39h-368zM336 498v228q0 11 2.5 23t10 21.5t20.5 15.5t34 6h188q31 0 51.5 -14.5t20.5 -52.5v-227h-327z" />
    

    
    <glyph glyph-name="tupian" unicode="&#13570;" d="M427.045253 383.545697q-29.984028 0-55.879326 11.357587t-44.976043 30.892635-30.438332 45.430346-11.357587 54.970719 11.357587 54.970719 30.438332 44.976043 44.976043 30.438332 55.879326 11.357587q29.075421 0 54.970719-11.357587t44.976043-30.438332 30.438332-44.976043 11.357587-54.970719-11.357587-54.970719-30.438332-45.430346-44.976043-30.892635-54.970719-11.357587zM1137.575865-128l-1137.575865 0 0 1024 1137.575865 0 0-113.575865 0-910.424135zM1024 782.424135l-909.515528 0 0-702.35315q16.354925 23.62378 36.344277 47.24756t41.795918 42.704525 44.976043 31.346939 46.793256 12.266193q28.166815 0 48.61047-4.088731t36.344277-10.44898 29.529725-14.083407 29.529725-14.083407 35.889973-10.44898 48.156167-4.088731 48.61047 16.809228 37.707187 42.250222 34.527063 54.516415 39.070098 54.516415 51.790594 42.250222 72.688554 16.809228q36.344277 0 69.962733-22.26087t62.239574-57.696539 52.699201-79.048802 42.250222-85.409051l0 643.2937z"  horiz-adv-x="1138" />

    
    <glyph glyph-name="erji" unicode="&#58917;" d="M942.766472 271.968715l0 136.151955c0 223.106145-180.773184 403.87933-403.87933 403.87933s-403.87933-180.773184-403.87933-403.87933l0-136.151955c-74.368715-6.864804-135.007821-69.792179-135.007821-146.449162l0-188.782123c0-81.23352 66.359777-147.593296 147.593296-147.593296s147.593296 66.359777 147.593296 147.593296l0 188.782123c0 56.06257-33.179888 105.260335-78.945251 129.287151l0 153.313966c0 178.484916 144.160894 321.501676 321.501676 321.501676 178.484916 0 321.501676-144.160894 321.501676-321.501676l0-152.169832c-46.909497-25.17095-81.23352-73.224581-81.23352-131.575419l0-188.782123c0-81.23352 66.359777-147.593296 147.593296-147.593296 81.23352 0 147.593296 66.359777 147.593296 147.593296l0 188.782123C1077.774293 202.176536 1017.135187 265.103911 942.766472 271.968715z"  horiz-adv-x="1076" />

    
    <glyph glyph-name="bizhixiazai" unicode="&#58936;" d="M1142.153846-212 1142.153846-212 39.384615-212c-23.630769 0-39.384615 15.753846-39.384615 39.384615l0 315.076923c0 23.630769 15.753846 39.384615 39.384615 39.384615s39.384615-15.753846 39.384615-39.384615l0-275.692308 1024 0 0 275.692308c0 23.630769 15.753846 39.384615 39.384615 39.384615 23.630769 0 39.384615-15.753846 39.384615-39.384615l0-315.076923C1181.538462-196.246154 1165.784615-212 1142.153846-212zM799.507692 445.723077l-169.353846-157.538462L630.153846 772.615385c0 23.630769-15.753846 39.384615-39.384615 39.384615-23.630769 0-39.384615-15.753846-39.384615-39.384615l0-484.430769-169.353846 157.538462C366.276923 461.476923 338.707692 457.538462 322.953846 441.784615 307.2 426.030769 299.323077 394.523077 315.076923 378.769231l248.123077-224.492308c7.876923-7.876923 19.692308-11.815385 31.507692-11.815385 11.815385 0 23.630769 3.938462 31.507692 11.815385L866.461538 378.769231c15.753846 15.753846 11.815385 47.261538-3.938462 63.015385C846.769231 457.538462 815.261538 461.476923 799.507692 445.723077z"  horiz-adv-x="1182" />

    
    <glyph glyph-name="fengche" unicode="&#58889;" d="M863.370603 398.507412 578.630536 398.507412c-28.823466 0-52.188616 23.36515-52.188616 52.188616L526.44192 569.561229l110.285802 0C720.839399 569.561229 802.647613 483.191116 863.370603 398.507412L863.370603 398.507412zM500.183883 738.061898l0-284.740066c0-28.823466-23.36515-52.188616-52.188616-52.188616L329.130066 401.133216 329.130066 511.419018C329.130066 595.531717 415.500179 677.339932 500.183883 738.061898L500.183883 738.061898zM160.629397 374.875179l284.740066 0c28.823466 0 52.188616-23.366174 52.188616-52.188616l0-118.865201L387.272277 203.821361C303.159578 203.821361 221.351364 290.191474 160.629397 374.875179L160.629397 374.875179zM523.816117 35.320693 523.816117 320.060759c0 28.823466 23.36515 52.188616 52.188616 52.188616L694.869934 372.249375l0-110.285802C694.869934 177.851896 608.499821 96.043682 523.816117 35.320693L523.816117 35.320693z"  horiz-adv-x="1024" />

    
    <glyph glyph-name="5" unicode="&#58884;" d="M512-128c-281.6 0-512 230.4-512 512s230.4 512 512 512 512-230.4 512-512c0-19.2-12.8-32-32-32S960 364.8 960 384c0 249.6-198.4 448-448 448S64 633.6 64 384s198.4-448 448-448c19.2 0 32-12.8 32-32S531.2-128 512-128zM992 96l-448 0C524.8 96 512 108.8 512 128s12.8 32 32 32l448 0c19.2 0 32-12.8 32-32S1011.2 96 992 96zM768-128c-19.2 0-32 12.8-32 32l0 448C736 371.2 748.8 384 768 384s32-12.8 32-32l0-448C800-115.2 787.2-128 768-128zM454.4 185.6c-6.4 0-19.2 0-25.6 6.4L262.4 358.4C256 364.8 256 377.6 256 384S256 403.2 262.4 409.6l224 224c12.8 12.8 32 12.8 44.8 0l166.4-166.4c12.8-12.8 12.8-32 0-44.8s-32-12.8-44.8 0L512 563.2 332.8 384l140.8-140.8c12.8-12.8 12.8-32 0-44.8C467.2 185.6 460.8 185.6 454.4 185.6z"  horiz-adv-x="1024" />

    
    <glyph glyph-name="taocanbanben" unicode="&#59062;" d="M885.438 338.081c25.695 51.52 40.545 109.247 40.545 170.527 0 213.952-176.065 387.392-393.214 387.392-217.155 0-393.217-173.44-393.217-387.424 0-61.28 14.847-119.007 40.542-170.525l-159.614-272.354c0 0 101.215-20.285 203.904-41.44 68.48-76.19 136.64-152.255 136.64-152.255l146.75 250.429c8.32-0.51 16.545-1.245 24.995-1.245 8.445 0 16.7 0.735 24.99 1.245l146.75-250.429c0 0 68.16 76.030 136.61 152.255 102.69 21.155 203.935 41.44 203.935 41.44l-159.616 272.384zM353.407-11.838c0 0-49.152 46.59-95.36 91.52-65.535 18.625-131.68 37.63-131.68 37.63l92.8 158.275c53.505-69.795 130.272-121.025 219.104-142.655l-84.864-144.77zM532.769 191.747c-176.577 0-319.682 143.425-319.682 320.349 0 176.897 143.137 320.319 319.682 320.319 176.54 0 319.679-143.422 319.679-320.319 0-176.925-143.14-320.349-319.679-320.349zM807.488 79.682c-46.21-44.93-95.36-91.52-95.36-91.52l-84.835 144.77c88.835 21.63 165.6 72.86 219.104 142.655l92.77-158.305c-0.034 0.030-66.144-18.945-131.679-37.6zM532.769 736c-123.715 0-224.002-100.287-224.002-223.999s100.287-223.999 224.002-223.999c123.71 0 223.999 100.287 223.999 223.999s-100.29 223.999-223.999 223.999zM532.769 352.001c-88.355 0-160.002 71.647-160.002 160s71.647 160 160.002 160c88.35 0 160-71.647 160-160s-71.651-160-160-160z"  horiz-adv-x="1057" />

    
    <glyph glyph-name="jianzhu2" unicode="&#58933;" d="M189.610667 13.596444 355.555556 13.596444 355.555556 473.486222 189.610667 355.84ZM696.832 523.264 696.832 13.596444 869.944889 13.596444 869.944889 355.84ZM414.833778 754.403556 639.943111 640.625778 639.943111 13.596444 414.833778 13.596444ZM189.610667 13.596444 355.555556 13.596444 355.555556 473.486222 189.610667 355.84ZM696.832 523.264 696.832 13.596444 869.944889 13.596444 869.944889 355.84ZM414.833778 754.403556 639.943111 640.625778 639.943111 13.596444 414.833778 13.596444Z"  horiz-adv-x="1024" />

    
    <glyph glyph-name="shendao" unicode="&#58934;" d="M359.397928 668.877189c1.874697 0 3.726881 0.090051 5.567809 0.215918l56.487525-163.633824 17.652032 5.706979 3.421936-7.433296 37.173644 15.944134-3.809769 8.27957 22.853497 13.81361-91.866291 141.853775c20.540825 14.261818 33.9226 37.536918 33.9226 63.842027 0 43.36567-36.461423 78.56024-81.402985 78.56024-44.943608 0-81.405031-35.195593-81.405031-78.56024C277.992897 704.042083 314.45432 668.877189 359.397928 668.877189zM359.397928 786.741597c22.445198 0 40.675398-17.59268 40.675398-39.277562 0-21.711488-18.2302-39.307238-40.675398-39.307238-22.497387 0-40.72861 17.59575-40.72861 39.307238C318.669318 769.148917 336.900541 786.741597 359.397928 786.741597zM684.943352 40.230516l61.062727 58.96802-81.407078 235.728816L583.196017 334.927351l-40.677445 58.908668-61.040215-19.651572 0-78.561263-40.677445-39.306214L583.196017-58.025299l101.745289 98.254791L522.154779 354.533898l20.363793 0L684.943352 40.230516zM603.557764 433.14428l61.040215 117.815289-142.444223 0c0 0-0.252757-30.823006-40.676421-58.908668-40.473807-28.031427-101.766778 0-101.766778 0l-101.717659-98.213859 142.445246-19.651572c0 0 61.902862 53.474912 122.080429 58.95881C602.695117 438.574966 603.557764 433.14428 603.557764 433.14428z"  horiz-adv-x="1024" />

    
    <glyph glyph-name="xiangshang" unicode="&#58969;" d="M767.266152 257.73301 511.97742 513.021742 256.688688 257.73301l191.455259 0 0-382.955678L575.788313-125.222668l0 382.955678L767.266152 257.73301zM1.377376 2.444278l255.333892 0L256.711268 130.088644 128.999162 130.088644 128.999162 768.355634l765.911356 0L894.910518 130.088644 767.266152 130.088644l0-127.644366 255.333892 0L1022.600044 896 1.377376 896 1.377376 2.444278z"  horiz-adv-x="1024" />

    
    <glyph glyph-name="qqkefu" unicode="&#58890;" d="M333.196788-128c-37.856769 0-75.834005 7.619541-112.847504 22.647804-51.680362 22.376754-67.762713 53.698185-72.219994 76.105056-4.125996 20.629981 0.331284 39.603541 6.625687 52.885033-0.301168 10.420399 2.258757 21.051616 7.52919 31.080498 7.197906 13.642893 19.094027 25.689597 34.754743 35.417311-7.679774 10.962501-16.172701 24.45481-24.183759 39.904709-19.003676-21.653951-45.054675-39.181906-71.196024-33.670539-12.438222 2.590041-28.851857 12.076821-36.561748 42.554984C50.31005 197.261022 68.048822 340.616805 150.207347 425.00397c-7.228023 22.738155-9.878298 52.07188 5.089733 76.165289 0.451751 18.642275 7.34849 43.368136 29.725243 62.341696 0.060234 0.391518 0.120467 0.783036 0.180701 1.20467 37.0135 262.015823 193.921826 324.056351 319.026852 329.959236C511.126614 895.488015 520.161642 895.969883 529.317138 895.969883c147.451663 0 307.221082-115.58813 318.996735-330.10982 16.985853-18.97356 46.199112-63.124732 35.116144-134.140055 28.219405-38.549454 110.46828-166.033705 68.786683-293.277021-8.944678-41.922532-37.766419-45.235375-46.500279-45.235375-20.148113 0-38.639805 12.73939-58.275933 41.139496-6.746155-13.341725-14.004294-26.984618-20.961266-39.181906 18.250757-10.872151 34.845093-29.514426 40.537161-59.751654 17.708656-28.701273 17.166554-58.787918 8.55316-75.623188-2.108173-4.18623-4.848799-7.800241-8.011058-10.751684-22.467104-34.182524-92.729508-75.081086-176.664922-75.081086-56.619511 0-111.130849 17.618305-162.148643 52.373048l-25.990765 0C480.046116-89.992647 418.065822-128 333.196788-128zM208.091762-3.135908c0.421635-0.09035-3.102026-7.800241-0.331284-16.594335 3.463428-11.022735 15.871533-21.413017 35.899179-30.086645C272.782565-61.652775 303.110144-67.766477 333.196788-67.766477c83.814947 0 139.290021 46.620746 139.832123 47.072498l8.432693 7.228023 66.527926 0 7.920708-5.692068c42.856151-30.960031 88.302344-46.68098 134.983324-46.68098 69.780536 0 119.804476 35.959413 126.128996 47.373665l3.734478 9.757831c-0.752919 4.005529-2.680392 9.426546-6.896738 15.269198l-4.547631 6.32452-0.93362 7.740008c-2.800859 23.34049-19.515661 27.346019-29.243375 27.677304l-67.702479 2.198524 46.440046 48.789153c9.426546 10.450516 46.229229 79.146849 58.818035 111.944002l25.027029 65.022088 30.237228-62.793447c10.872151-22.647804 19.575895-37.043616 25.990765-46.138878 29.514426 114.56416-68.846916 236.356342-69.870886 237.59113l-9.306079 11.323902 3.132143 14.335578c14.87768 67.009794-20.599865 97.518073-22.075586 98.782977l-10.450516 8.703744-0.783036 13.883827C782.749684 758.697685 626.47381 835.736361 529.317138 835.736361c-6.926855 0-13.76336-0.361401-20.389047-1.084203-150.764507-7.167789-239.006617-100.8008-264.09388-278.369224-1.626305-11.354019-4.336814-30.658863-19.515661-37.645952-11.62507-9.035028-9.727714-20.961266-9.727714-21.081733l2.951443-15.329431-10.811917-11.263669c-7.288256-7.589424-0.391518-29.695127 4.758448-39.302373l11.504603-21.503368-18.551925-15.871533c-73.063263-61.709244-90.229817-184.706097-84.146231-231.025676 9.878298 9.878298 22.587571 27.43637 31.562366 44.45234l34.845093 66.015941 20.720332-71.708009c17.136437-59.360136 57.643481-102.306638 58.034999-102.758389l33.94159-35.628129L253.297021 49.568424c-27.52672-8.161642-37.766419-20.810682-38.398871-24.484927l5.481251-17.10632L208.091762-3.135908z"  horiz-adv-x="1024" />

    
    <glyph glyph-name="luntan" unicode="&#59000;" d="M951.387101 242.119017 951.387101 491.824682c0 67.504454-51.327711 122.967573-117.12935 129.535574l0-247.394702c0-103.871719-84.532605-188.404324-188.404324-188.404324L355.645088 185.561231c-19.825632-18.244447-39.408006-32.961634-58.50386-45.124599 22.258225-17.757928 50.354674-28.461337 81.126975-28.461337l313.68286 0c125.400166-127.832759 258.827889-102.168904 232.190997-82.100012-39.772895 29.920893-60.449935 59.476897-69.572158 86.478679C910.27628 131.192778 951.387101 181.790711 951.387101 242.119017L951.387101 242.119017zM951.387101 242.119017M775.87552 373.965554 775.87552 623.67122c0 71.883122-58.260601 130.143723-130.143723 130.143723L202.756622 753.814942c-71.883122 0-130.143723-58.260601-130.143723-130.143723l0-249.827295c0-60.328305 41.110821-110.926238 96.817199-125.643426-9.243853-27.001782-29.799264-56.557786-69.572158-86.600309-10.46015-7.905927 3.770519-16.541632 32.475116-16.541632 44.394821 0 123.575722 20.920299 199.715881 98.641644l313.68286 0C717.614919 243.821832 775.87552 302.082433 775.87552 373.965554L775.87552 373.965554zM775.87552 373.965554"  horiz-adv-x="1024" />

    
    <glyph glyph-name="jian" unicode="&#58986;" d="M858.182 261.266c0.03 28.746-13.384 35.805-86.048 35.646-150.967 0.149-103.489-52.883-100.113-54.663 0 0-7.134-3.838-44.466-6.826l97.08 440.319L513.173 832l-2.207-1.603-213.674-154.639 96.827-439.225c-35.487 3.565-43.77 7.915-43.77 7.915 3.396 1.775 47.827 52.44-69.339 52.443-74.847-0.007-115.202-7.549-115.192-33.523 0.015-38.622 53.047-77.549 115.445-87.667 0 0 53.847-2.978 122.013-4.996-2.093-5.379-3.286-11.31-3.286-17.957-0.005-31.562-8.407-103.28 27.289-149.58-16.327 6.05-46.534 13.115-46.534 19.909 0.005 14.39-23.898 26.044-53.425 26.041-29.487 0-53.378-11.656-53.388-26.039C273.938-25.749 378-64 511-64v0.015c133-0.01 237.053 38.239 237.033 87.075-0.03 14.385-23.934 26.034-53.436 26.041-29.482 0-53.4-11.658-53.415-26.039-0.02-6.799-30.19-13.871-46.547-19.919 35.681 46.313 27.268 118.013 27.268 149.588 0.01 6.577-1.184 12.484-3.242 17.836 70.895 1.996 126.437 5.106 126.437 5.106 62.424 10.127 113.114 38.9 113.084 85.563z"  horiz-adv-x="1024" />

    
    <glyph glyph-name="shanzi-" unicode="&#59129;" d="M516.06528 306.78016c-73.6256 0-139.1616-34.63168-181.21728-88.4992l176.34304-74.76736-46.66368-19.78368a61.3632 61.3632 0 0 1 48.47616-23.66976 61.3376 61.3376 0 0 1 46.82752 21.65248l-46.94528 21.70368 178.23744 82.41152c-42.14784 49.53088-104.92928 80.95232-175.05792 80.95232zM516.06528 636.47744c-204.01664 0-379.23328-123.29984-455.21408-299.4432l226.9184-98.33984c50.68288 71.42912 134.04672 118.05184 228.29568 118.05184 90.20928 0 170.4192-42.71104 221.57824-108.98944l225.8688 106.38848c-79.69792 166.9632-250.09664 282.33216-447.44704 282.33216z"  horiz-adv-x="1024" />

    
    <glyph glyph-name="weibo" unicode="&#59033;" d="M708.486 391.161c-12.986 1.214-24.758 8.374-16.142 23.18s24.515 57.89-6.068 88.231c-30.583 30.462-97.454 18.932-144.786-0.729-47.21-19.661-44.661-5.947-43.205 7.524 1.578 14.199 27.065 93.571-50.851 103.158-102.066 12.5-233.017-113.838-279.257-186.656-69.905-109.955-58.861-184.351-58.861-184.351h0.485c8.374-102.673 159.593-184.471 344.914-184.471 159.349 0 293.578 60.56 333.263 142.845 0 0 0.122 0.364 0.485 0.971 4.127 8.86 7.282 17.84 9.223 27.185 5.583 22.087 9.83 54.128-0.607 85.682-18.569 55.827-75.609 76.217-88.595 77.429zM431.779 101.953c-131.922 0-238.964 70.876-238.964 158.257s106.921 158.257 238.964 158.257c131.922 0 238.964-70.876 238.964-158.257 0-87.503-107.042-158.257-238.964-158.257zM756.668 452.691c2.427-1.092 4.976-1.578 7.524-1.578 7.524 0 14.806 4.491 17.84 11.893 4.976 11.773 7.524 24.272 7.524 37.259 0 52.671-42.841 95.513-95.513 95.513-12.865 0-25.364-2.548-37.137-7.524-9.83-4.127-14.442-15.534-10.316-25.486 4.127-9.83 15.534-14.442 25.486-10.316 7.039 2.913 14.442 4.491 22.087 4.491 31.312 0 56.676-25.486 56.676-56.676 0-7.646-1.456-15.050-4.491-22.087-4.247-9.952 0.364-21.36 10.316-25.486zM692.953 714.957c-21.724 0-43.205-3.155-63.837-9.223-15.413-4.611-24.151-20.753-19.661-36.166 4.611-15.413 20.753-24.151 36.166-19.661 15.292 4.491 31.19 6.796 47.331 6.796 91.387 0 165.782-74.396 165.782-165.782 0-16.384-2.427-32.646-7.039-48.181-4.611-15.413 4.005-31.676 19.419-36.287 2.791-0.85 5.703-1.214 8.496-1.214 12.5 0 24.030 8.131 27.914 20.631 6.311 20.995 9.588 42.841 9.588 65.051-0.122 123.548-100.61 224.036-224.157 224.036zM409.691 360.699c-70.39 0-127.431-49.881-127.431-111.533s57.040-111.533 127.431-111.533 127.431 49.881 127.431 111.533-57.040 111.533-127.431 111.533zM368.063 176.711c-24.637 0-44.661 20.025-44.661 44.661s20.025 44.661 44.661 44.661c24.637 0 44.661-20.025 44.661-44.661 0-24.637-20.025-44.661-44.661-44.661zM451.562 257.175c-5.34-9.345-16.142-13.229-24.030-8.617-7.888 4.491-9.83 15.777-4.491 25.122 5.34 9.345 16.142 13.229 24.030 8.617 7.888-4.611 9.83-15.899 4.491-25.122z"  horiz-adv-x="1024" />

    
    <glyph glyph-name="yinle" unicode="&#58882;" d="M881.792 889.472l-549.696-91.84c-2.987-0.515-5.66-1.482-8.087-2.838l-16.809 1.43c-13.568 0-24.32-10.816-24.32-24.192v-628.352c-20.866 12.272-45.964 19.52-72.755 19.52-0.072 0-0.144-0-0.217-0-0.046 0-0.113 0-0.181 0-80.438 0-145.655-65.172-145.728-145.593 0.073-80.435 65.29-145.607 145.728-145.607 0.068 0 0.135 0 0.203 0 0.045-0 0.112-0 0.178-0 80.483 0 145.728 65.245 145.728 145.728 0 6.067-0.371 12.048-1.091 17.921 0.72 1.391 1.094 3.8 1.094 6.297 0 0.014-0 0.027-0 0.040l0 510.974 510.72 90.112v-353.792c-20.957 12.349-46.17 19.643-73.088 19.643-80.517 0-145.789-65.271-145.792-145.787 0.109-80.436 65.341-145.6 145.792-145.6 0.045 0 0.090 0 0.135 0 0.047-0 0.11-0 0.173-0 80.519 0 145.792 65.273 145.792 145.792 0 6.045-0.368 12.003-1.082 17.855 0.68 1.33 1.031 3.667 1.031 6.085 0 0.089-0 0.177-0.001 0.265l0 679.474c-0.006 11.863-8.551 21.729-19.821 23.786-3.166 1.856-6.816 2.941-10.719 2.941-1.354 0-2.677-0.131-3.958-0.38l-12.798-2.155h-1.28c-3.264 0-6.4-0.64-9.152-1.728z"  horiz-adv-x="1024" />

    
    <glyph glyph-name="bangzhu" unicode="&#58982;" d="M273.13152 784.71168c-121.3696 0-219.77088-72.04352-219.77088-160.91648v-633.37984a7.89504 7.89504 0 0 1 13.53216-5.31968 280.86784 280.86784 0 0 0 206.24384 86.36416 280.87296 280.87296 0 0 0 206.24896-86.36416 7.88992 7.88992 0 0 1 13.52704 5.31968V623.7952c-0.00512 88.87296-98.4064 160.91648-219.78112 160.91648z m479.01696 0c-121.37472 0-219.77088-72.04352-219.77088-160.91648v-633.37984a7.88992 7.88992 0 0 1 13.52704-5.31968 289.44384 289.44384 0 0 0 412.48768 0 7.88992 7.88992 0 0 1 13.52704 5.31968V623.7952c0 88.87296-98.39616 160.91648-219.79136 160.91648z"  horiz-adv-x="1024" />

    
    <glyph glyph-name="icon_fuzhuangxiangbao" unicode="&#58950;" d="M808.261818 289.745455a20.945455 20.945455 0 0 0-8.843636-2.094546v-264.145454a23.272727 23.272727 0 0 0-23.272727-23.272728H239.709091a23.272727 23.272727 0 0 0-23.272727 23.272728v256a20.48 20.48 0 0 0-6.981819 3.258181c-172.218182 101.469091-152.436364 116.363636-154.298181 128a26.298182 26.298182 0 0 0 4.189091 19.781819c-5.352727-6.749091 135.214545 241.338182 186.181818 295.563636C283.927273 768.465455 395.636364 767.767273 405.643636 767.534545a23.272727 23.272727 0 0 0 21.876364-17.221818s11.403636-76.334545 77.963636-76.334545S605.090909 750.08 605.090909 751.010909a23.272727 23.272727 0 0 0 21.876364 16.290909c40.96 0 139.636364-6.981818 165.701818-42.123636C826.88 680.029091 977.454545 453.818182 969.774545 411.927273c-1.861818-10.705455 15.592727-38.632727-161.512727-122.181818zM757.294545 695.621818c-8.378182 10.472727-61.44 21.178182-116.363636 23.272727a145.687273 145.687273 0 0 0-135.68-93.090909c-79.825455 0-103.098182 58.181818-116.363636 93.090909-34.909091-1.396364-94.952727-9.309091-111.243637-26.763636C224.349091 636.974545 99.374545 407.272727 106.123636 417.512727a1233.454545 1233.454545 0 0 1 111.243637-85.410909v110.545455a23.272727 23.272727 0 0 0 44.683636 0v-395.636364h492.683636v395.636364a23.272727 23.272727 0 0 0 44.683637 0V337.454545a576.698182 576.698182 0 0 1 124.276363 83.549091 2216.494545 2216.494545 0 0 1-166.4 274.618182z m-72.378181-602.298182H331.403636a23.272727 23.272727 0 0 0 0 46.545455h353.512728a23.272727 23.272727 0 0 0 0-46.545455z m-186.181819 442.181819c-88.436364 0-151.505455 79.825455-153.134545 84.247272a23.272727 23.272727 0 0 0 12.334545 30.254546 21.643636 21.643636 0 0 0 28.16-11.869091 156.392727 156.392727 0 0 1 112.174546-55.156364 188.276364 188.276364 0 0 1 136.843636 53.992727 23.272727 23.272727 0 0 0 27.461818 14.661819 23.272727 23.272727 0 0 0 13.73091-29.556364c-9.774545-38.4-80.523636-86.341818-176.407273-86.341818z"  horiz-adv-x="1024" />

    
    <glyph glyph-name="jingdian-simiao" unicode="&#58909;" d="M840.32 525.641143c0 0.365714-0.365714 0.676571-0.914286 0.786286-0.530286 0.128-1.152 0.018286-1.481143-0.292572-31.579429-26.441143-68.992-37.778286-100.626285-37.778286-24.32 0-45.202286 6.674286-57.618286 18.432v69.485715c0 4.900571-6.217143 8.868571-13.897143 8.868571-7.698286 0-13.933714-3.986286-13.933714-8.868571v-5.814857H371.309714v5.814857c0 4.882286-6.217143 8.868571-13.915428 8.868571-7.68 0-13.915429-3.986286-13.915429-8.868571v-69.504c-12.434286-11.739429-33.28-18.413714-57.6-18.413715-31.616 0-69.065143 11.337143-100.626286 37.778286-0.365714 0.310857-0.950857 0.402286-1.481142 0.292572-0.548571-0.109714-0.914286-0.420571-0.914286-0.786286 0.036571-9.307429 4.900571-17.938286 13.165714-25.526857-0.292571-1.645714-0.457143-3.328-0.457143-5.046857 0.073143-24.283429 28.397714-55.881143 69.229715-68.333715h493.622857c40.832 12.470857 69.156571 44.050286 69.211428 68.333715 0 1.718857-0.182857 3.419429-0.457143 5.028571 8.265143 7.606857 13.110857 16.237714 13.147429 25.545143z m-81.042286-292.900572h-15.725714c-0.292571 2.669714-1.865143 5.046857-4.352 7.003429v172.123429H283.977143v-172.123429a10.331429 10.331429 0 0 1-4.352-7.003429h-15.725714c-0.365714 0-0.694857-0.091429-0.950858-0.256s-0.384-0.384-0.384-0.603428v-56.795429c0-0.219429 0.146286-0.420571 0.384-0.585143s0.585143-0.256 0.950858-0.256h495.396571a1.846857 1.846857 0 0 1 0.950857 0.256c0.256 0.164571 0.384 0.384 0.384 0.585143v56.795429c0 0.237714-0.146286 0.438857-0.384 0.603428s-0.621714 0.256-0.969143 0.256z m-252.745143-28.818285h-65.755428v138.624h65.755428v-138.624z m80.914286 0H521.691429v138.624h65.755428v-138.624z"  horiz-adv-x="1024" />

    
    <glyph glyph-name="shipin" unicode="&#58883;" d="M508 860.8C246.4 860.8 35.2 649.6 35.2 388s212-472.8 472.8-472.8 472.8 212 472.8 472.8c0 261.6-211.2 472.8-472.8 472.8z m0-875.2c-222.4 0-402.4 180-402.4 402.4 0 222.4 180 402.4 402.4 402.4s402.4-180 402.4-402.4c0-222.4-180-402.4-402.4-402.4z m180.8 435.2l-244 140.8c-24.8 14.4-56.8-4-56.8-32.8v-282.4c0-28.8 31.2-47.2 56.8-32.8l244 140.8c24.8 15.2 24.8 52 0 66.4z"  horiz-adv-x="1024" />

    
    <glyph glyph-name="zuanshi" unicode="&#58907;" d="M578.37037 896h379.25926L578.37037 677.925926 199.111111 896h379.259259zM161.185185 886.518519l265.481482-455.111112 151.703703 208.592593v-768l-47.407407 56.888889L161.185185 886.518519z m293.925926-900.740741L0 431.407407l132.740741 369.777778 322.37037-815.407407zM265.481481 801.185185l246.518519-142.222222-85.333333-142.222222-161.185186 284.444444z m730.074075 85.333334L625.777778-71.111111l-47.407408-56.888889V640l151.703704-208.592593 265.481482 455.111112zM701.62963-14.222222l322.37037 815.407407 132.740741-369.777778-455.111111-445.629629z m189.629629 815.407407L730.074074 516.740741l-85.333333 142.222222 246.518518 142.222222z"  horiz-adv-x="1156" />

    
    <glyph glyph-name="zhanghao" unicode="&#58932;" d="M122.833-60.223c0 169.311 108.498 312.926 259.61 366.139C294.461 352.453 233.84 443.817 233.84 550.28c0 153.258 124.239 277.498 277.498 277.498S788.836 703.539 788.836 550.28c0-106.462-60.621-197.827-148.603-244.364 151.112-53.213 259.602-196.828 259.602-366.139H122.833z"  horiz-adv-x="1024" />

    
    <glyph glyph-name="gouwucheman" unicode="&#58891;" d="M346.112 89.088q19.456 0 36.864-7.168t30.208-19.968 20.48-30.208 7.68-36.864-7.68-36.864-20.48-30.208-30.208-20.48-36.864-7.68q-20.48 0-37.888 7.68t-30.208 20.48-20.48 30.208-7.68 36.864 7.68 36.864 20.48 30.208 30.208 19.968 37.888 7.168z m425.984-2.048q19.456 0 37.376-7.168t30.72-19.968 20.48-30.208 7.68-36.864-7.68-36.864-20.48-30.208-30.72-20.48-37.376-7.68-36.864 7.68-30.208 20.48-20.48 30.208-7.68 36.864 7.68 36.864 20.48 30.208 30.208 19.968 36.864 7.168z m172.032 581.632q28.672 0 44.544-7.68t22.528-18.944 6.144-24.064-3.584-22.016-13.312-37.888-22.016-62.976-23.552-68.096-18.944-53.248q-13.312-40.96-33.28-56.832t-49.664-15.872h-537.6l14.336-92.16h517.12q49.152 0 49.152-41.984 0-20.48-9.728-35.328t-38.4-14.848H311.296q-20.48 0-34.304 9.216t-23.04 24.064-14.848 32.256-8.704 32.768q-1.024 6.144-5.632 29.696t-11.264 58.88-14.848 78.848-16.384 87.552q-19.456 103.424-44.032 230.4h-76.8q-15.36 0-25.6 7.68t-16.896 18.432-9.216 23.04-2.56 22.528q0 20.48 13.824 33.792T58.368 819.2h103.424q20.48 0 32.768-6.144t19.456-15.36 10.24-19.456 5.12-17.408q2.048-8.192 4.096-23.04t4.096-30.208q3.072-18.432 6.144-38.912h700.416z m-76.8 32.768H492.544L627.712 836.608q23.552 23.552 51.712 24.064t51.712-23.04z"  horiz-adv-x="1024" />

    
    <glyph glyph-name="jiuhulu" unicode="&#59098;" d="M649 386.8l-14.5 6.5 12.1 10.3c40.6 34.4 63.8 83.2 63.8 133.9 0 49.4-21.9 95.4-58.2 128.8-2.5-2.2-5-4.4-7.7-6.6-30.2-24-70.2-37.2-112.6-37.2s-82.4 13.2-112.6 37.2c-9 7.2-16.8 15-23.4 23.4-44.4-35.3-72.5-87.5-72.5-145.7 0-53.1 23.4-101.2 61.2-136 1-0.9 1.6-3.4 0.8-5.4-0.9-2.2-3.2-4-5-4.9-82.8-40.8-138-114-138-197.6 0-57.1 24.4-112.5 67.1-152.9 23.3-17.3 59.2-19.8 88.4-19.8 164.8 0 303.9 120.8 362.6 273.8-24.5 38-62.9 70.4-111.5 92.2zM289.1 322.6c13 4.8 22.9-9.8 24.5-18 4.1-21.6 18.4 33.2 45-22.1-29.5 43.6-29.9-5.4-53.9-10.3-9.8-2-12 6.6-21 3.7-0.2 0-5-0.7-6.9 4.6-1.4 3.9 2.6 4.9 3.1 4.2-2.6-2.4 1.9-7.2 5-4 1.1 1.2 1.2 4.1-1.1 6.6-1.4 1.5-5.5 1.9-8.2-1.3-1.2-1.4-2.4-5-0.2-9.5 4.8-9.8 13-0.5 18.4-11.6 0.3-13.6-18.7-14.6-27.6-8.9-17.9 11.5-22 43.4-0.9 50.4-3 12.9 15.8 20.7 23.8 16.2zM361.6 418.6l0.9-0.9-0.9 0.9zM449.8 738.5c0.1 0.4 0.3 0.9 0.4 1.3-0.2-0.4-0.3-0.9-0.4-1.3zM391.3 682.1c0-0.1 0-0.1 0 0 0-0.1 0-0.1 0 0zM531.3 761.4v16.7c0 10.6-8.7 19.3-19.3 19.3s-19.3-8.7-19.3-19.3v-16.7c-19.6-7.4-34-25.7-36.1-47.6-23.3-5.9-45-15.5-64.3-28 24.7-31.3 69.1-52.3 119.7-52.3s95 20.9 119.7 52.3c-19.3 12.5-41 22-64.3 28-2 21.9-16.4 40.2-36.1 47.6zM399.4 659.7c30.2-24 70.1-37.2 112.6-37.2 42.4 0 82.4 13.2 112.6 37.2 9 7.2 16.8 15 23.4 23.4-5.2 4.1-10.6 8-16.3 11.7-24.7-31.3-69.1-52.3-119.7-52.3s-95 20.9-119.7 52.3c-5.6-3.7-11.1-7.6-16.3-11.7 6.6-8.4 14.4-16.2 23.4-23.4zM435.4 721.7c-1.7 1.4-3.9 2.2-6.2 2.2-1.2 0-2.4-0.2-3.5-0.7-0.2-0.1-0.3-0.1-0.5-0.2l-5.7-2.4c-0.4-0.2-2.3-1-2.8-1.3-1.2-0.7-2.2-1.6-3-2.6-1.3-1.7-2.1-3.8-2.1-6.1 0-5.6 4.5-10.1 10.1-10.1 1.5 0 2.9 0.3 4.2 0.9 0.4 0.2 1.7 0.9 2 1 0.8 0.3 1.5 0.7 2.3 1 0.5 0.2 2.2 0.9 2.7 1.1 0.5 0.2 2.3 1.1 2.7 1.4 2.3 1.8 3.8 4.7 3.8 7.9s-1.7 6.1-4 7.9zM693.5 385.9c-6.3 3.9-12.7 7.5-19.4 11-0.3-0.3-0.7-0.6-1-0.9 7-3.2 13.8-6.6 20.4-10.1zM384.3 699.3c-0.4 0-0.8 0-1.2-0.1-1.3-0.2-2.5-0.6-3.6-1.2-0.6-0.3-2.4-1.7-2.7-2-13.9-10.1-26.5-21.8-37.3-34.8-30-35.7-45.8-78.6-45.8-123.9 0-28.9 6.4-56.8 19.2-82.9 8.7-17.8 19.9-34.1 33.5-48.8 0.2-0.2 1.9-2.1 2.7-2.6 1.6-1.2 3.7-1.9 5.8-1.9 4.8 0 8.7 3.3 9.8 7.8 0.2 0.7 0.3 1.5 0.3 2.3 0 2.4-0.9 4.7-2.3 6.4l-0.9 0.9c-30.8 32.9-48.1 75.2-48.1 118.8 0 56.8 29 109.1 75.4 142.9 0.4 0.3 0.9 0.6 1.3 1 0.2 0.2 1.5 1.2 1.7 1.5 1.5 1.8 2.4 4 2.4 6.5-0.2 5.6-4.7 10.1-10.2 10.1zM750.9 324.4C699.8 155.8 551.3 33.8 376 33.8c-29.1 0-57.5 3.4-84.9 9.8 53.1-50.2 132.4-82.1 220.9-82.1 159.9 0 289.5 103.8 289.5 231.9 0 48.6-18.7 93.7-50.6 131zM329.4 170.1s-4.8 8.1 4.8 10.5c9.5 2.4 18.1-7.2 16.5-15.7-1.8-9.4-11.9-15.6-26.2-10.5-14.3 5.1-13.1 12.3-16.6 15.2s-9.1 3.2-12.6-0.9c-3.5-4.1-4.1-7-5.4-12.1s-3.2-7.3-5.7-9.2-8.3-17.8 4.1-31.7c12.4-14 34-8.9 39.7-4.8 5.7 4.1 7.3 17.8-0.6 20s-8.6-2.5-8.6-5.7 1.6-5.1 1.6-5.1-6.4-0.6-7.3 7c-1 7.9 6 13.9 13.7 11.7 7.6-2.2 9.2-9.5 9.2-9.5s-2.5 18.4 14.9 25.1c17.5 6.7 33.3-5.7 38.1-12.4 0 0 11.1 1.6 18.7-5.4s2.5-6.7 9.8-7.3 14-10.2 13.3-20c-0.6-9.8-5.2-18.4-13-22.5-6-3.2-13-5.2-18 0.9 0 0-0.4-14.2 24.4-31.6 24.8-17.5 38.7-11.1 45.1-9.8 6.3 1.3 21.9 8.6 24.1 10.2 0 0-21.3-10.5-34.6-10.2-13.3 0.3-28.6 5.7-32.4 21-3.8 15.2 7.6 25.7 18.7 26s14.9-5.4 13.6-11.1c-1.3-5.7-3.8-8.9-6.3-7.9-2.5 0.9-1 2.9 0.3 6.3 1.3 3.5 0 7-4.1 5.7s-6.4-10.2-3.8-17.8c2.5-7.6 15.9-10.5 24.8-2.9s13 19.7 8.9 26.4-4.8 7.3-2.5 11.1c2.2 3.8 4.8 10.2 1 18.4s-13 2.2-16.5 14.9-13.3 14.3-20.6 11.7c-7.3-2.5-14.3-6.3-19.4-8.6-5.1-2.2-18.4-2.5-26.3 8.3s-0.9 19.7 8.9 20.3 11.7-7.9 9.2-12.7-4.4-3.8-4.4-3.8 4.1 9.5-3.2 9.8c-7.3 0.3-8.6-9.3 0-13.7s18.7-2.8 27.3 8.3c8.6 11.1 0 21-8.9 26-8.9 5.1-16.5 4.4-16.5 4.4s-5.4 11.1-19.7 13.3c-14.3 2.2-17.8-7-17.8-7s-15.9 10.2-31.1 6.3c-15.2-3.8-23.8-14.6-23.5-23.5s10.8-18.7 22.2-17.2c11.4 1.6 7 15.6 2.2 15.9-4.9 0.5-9.5-4.1-9.5-4.1zM439.7 85.5s-12.3-4.8-4.8-22.5c6.6-15.5 30.8-11.7 41.3-8.6 10.5 3.2 29.2 17.1 50.8 13.3s28.6-11.7 28.6-11.7-7.9 14-16.8 17.1c-8.9 3.2-16.5-1.3-25.7 1-9.2 2.2-12.4 9.5-11.7 16.8 0.6 7.3 8.6 8.9 10.5 7 1.9-1.9-1.3-3.5-3.2-6.3-1.9-2.9 1.3-10.2 9.8-12.4 8.6-2.2 15.6 3.8 18.7 13.6 3.2 9.8-7 16.2-13 16.8s-8.6 5.1-9.2 8.3c-0.6 3.2-8.2 10.8-17.1 11.1s-16.2-0.3-15.2-4.5c1-4.1 4.1-11.1 1.6-19s-1.6-7.6 0.9-12.1c2.5-4.4 1.9-16.2-3.2-24.8s-16.8-17.1-32.7-12.7c-16 4.6-13.1 25.2-9.6 29.6zM402.8 107.4s-6.3-14 2.2-15.9c8.6-1.9 13.8 4 17.6 13.8 3.8 9.8-1.8 17.9-6.8 18.5-5.1 0.6-8.7 1.1-10.9 4.9-2.2 3.8-8.5 7.7-12.3 7.1-3.8-0.6-7-2.5-11.1 2.2-4.1 4.8-13.4 12.9-25.2 9.5-11.7-3.5-14.5-7.5-14.5-16.4s4.4-15.2 11.7-15.6c7.3-0.3 6.7 9.2 2.9 10.8-3.8 1.6-7.3 1.3-7.3 1.3s0 6.7 7.6 4.8 11.1-12.7 13.7-26c2.5-13.3 6-47 51.7-64.7 45.7-17.8 57.5-4.2 70.5 3.5 13.5 8 15.5 15.6 44.4 12.7 0 0-14 11.1-36.2-1.9s-39.7-23.2-64.8-14.3c-25.1 8.9-41.1 31.8-43.2 43.8-1.3 8.9 2.1 20.4 10 21.9zM768.9 317.9c-0.1 0.2-0.2 0.3-0.4 0.5-19.6 26.1-45.1 49-75 67.4-6.6 3.6-13.4 6.9-20.4 10.1 0.3 0.3 0.7 0.6 1 0.9-1.1 0.6-2.2 1.2-3.3 1.7 16.8 16.4 30.4 35.2 40.5 55.9 12.7 26.1 19.2 54.1 19.2 82.9 0 45.3-15.8 88.2-45.8 123.9-5.7 6.8-11.8 13.1-18.2 19.1l-0.4 0.4c-0.1 0.1-0.3 0.2-0.4 0.4l-0.1 0.1c-25 22.8-55.8 40-89.2 49.6-4 19.9-17 37.1-35 46.2v10.2c0 16.2-13.2 29.3-29.3 29.3-16.2 0-29.3-13.2-29.3-29.3V777c-15.2-7.7-26.8-21.1-32.5-37.1-0.2-0.4-0.3-0.9-0.4-1.3-0.2-0.8-0.4-1.7-0.4-2.7 0-0.6 0.1-1.3 0.2-1.9 0.9-4.7 5-8.2 9.9-8.2 4.6 0 8.4 3 9.6 7.2 0.1 0.3 0.5 1.7 0.7 2.1 4.8 11.8 14.3 21.4 26.4 26l6.5 2.4v23.6c0 5.1 4.2 9.3 9.3 9.3 5.1 0 9.3-4.2 9.3-9.3v-23.6l6.5-2.4c16.4-6.2 28-21.5 29.6-39.2l0.7-7 6.8-1.7c33.7-8.6 63.4-24.9 87.1-46.6l0.3-0.4c36.3-33.4 58.2-79.4 58.2-128.8 0-50.7-23.3-99.5-63.8-133.9l-12.1-10.3 14.5-6.5c48.6-21.8 87-54.1 111.6-92.2 19.9-30.8 30.9-65.4 30.9-101.1 0-122.3-125.4-221.9-279.5-221.9S232.6 71 232.6 193.4c0 70.9 43.1 137.3 114.2 178.9 0.6 0.4 1.3 0.7 1.9 1.1 0.1 0.1 0.5 0.3 0.6 0.4 2.2 1.8 3.6 4.4 3.7 7.4v0.4c0 5.6-4.5 10.1-10.1 10.1-0.9 0-1.8-0.1-2.6-0.4-1.1-0.3-3.6-1.7-3.8-1.9-32.5-19-60.1-43.1-80.9-71-28.1-37.6-43-80.8-43-125 0-65 31.4-126 88.5-171.8 56.4-45.2 131.4-70.1 210.9-70.1s154.5 24.9 210.9 70.1c57.1 45.7 88.5 106.7 88.5 171.8 0.1 44-14.7 87.1-42.5 124.5z"  horiz-adv-x="1024" />

    
    <glyph glyph-name="mache" unicode="&#58937;" d="M455.68 251.904c-31.744 0-57.344-25.6-57.344-57.344s25.6-57.344 57.344-57.344 57.344 25.6 57.344 57.344-25.6 57.344-57.344 57.344zM455.68 240.64c25.6 0 46.08-20.48 46.08-46.08S481.28 148.48 455.68 148.48 409.6 168.96 409.6 194.56s20.48 46.08 46.08 46.08M455.68 373.76C356.352 373.76 276.48 293.888 276.48 194.56S356.352 15.36 455.68 15.36 634.88 95.232 634.88 194.56 553.984 373.76 455.68 373.76z m144.384-129.024l-132.096-38.912 65.536 120.832c31.744-19.456 55.296-48.128 66.56-81.92zM523.264 332.8l-65.536-120.832L417.792 343.04c12.288 3.072 24.576 5.12 36.864 5.12 24.576 0 48.128-6.144 68.608-15.36z m-117.76 7.168l38.912-132.096-120.832 65.536c18.432 30.72 47.104 54.272 81.92 66.56zM317.44 262.144l120.832-65.536-132.096-38.912c-3.072 12.288-5.12 24.576-5.12 36.864 1.024 24.576 6.144 47.104 16.384 67.584z m-7.168-117.76l132.096 38.912-65.536-120.832c-31.744 19.456-55.296 48.128-66.56 81.92z m77.824-88.064l65.536 120.832L492.544 46.08c-12.288-3.072-24.576-5.12-36.864-5.12-24.576 0-47.104 6.144-67.584 15.36z m116.736-7.168l-38.912 132.096 120.832-65.536c-18.432-30.72-47.104-54.272-81.92-66.56z m88.064 77.824l-120.832 65.536L604.16 231.424c3.072-12.288 5.12-24.576 5.12-36.864 0-24.576-6.144-47.104-16.384-67.584zM880.64 209.92H337.92l12.288 13.312c22.528 24.576 35.84 56.32 38.912 90.112l22.528 230.4c10.24 101.376 95.232 178.176 196.608 178.176 101.376 0 187.392-76.8 196.608-178.176L829.44 315.392c3.072-30.72 15.36-60.416 34.816-84.992l16.384-20.48zM143.36 209.92h737.28v-20.48H143.36zM412.672 543.744L389.12 313.344c-3.072-33.792-17.408-64.512-38.912-90.112L337.92 209.92h204.8V710.656c-70.656-25.6-122.88-89.088-130.048-166.912zM645.12 717.824c-1.024 19.456-16.384 34.816-35.84 34.816s-34.816-15.36-35.84-34.816c11.264 2.048 23.552 3.072 35.84 3.072s24.576-1.024 35.84-3.072zM542.72 710.656V209.92h20.48V716.8c-7.168-2.048-13.312-4.096-20.48-6.144zM471.04 496.64m-11.264 0a11.264 11.264 0 1 1 22.528 0 11.264 11.264 0 1 1-22.528 0ZM451.584 419.84h-51.2l-1.024-10.24h52.224c0 2.048-1.024 3.072-1.024 5.12s0 3.072 1.024 5.12zM471.04 414.72m-11.264 0a11.264 11.264 0 1 1 22.528 0 11.264 11.264 0 1 1-22.528 0ZM700.416 194.56m-57.344 0a57.344 57.344 0 1 1 114.688 0 57.344 57.344 0 1 1-114.688 0ZM700.416 240.64c25.6 0 46.08-20.48 46.08-46.08s-20.48-46.08-46.08-46.08-46.08 20.48-46.08 46.08C655.36 220.16 675.84 240.64 700.416 240.64m0 12.288c-31.744 0-57.344-25.6-57.344-57.344 0-31.744 25.6-57.344 57.344-57.344s57.344 25.6 57.344 57.344c1.024 30.72-25.6 57.344-57.344 57.344zM465.92 487.424c1.024 0 1.024-1.024 2.048-1.024s2.048-1.024 3.072-1.024c6.144 0 11.264 5.12 11.264 11.264 0 6.144-5.12 11.264-11.264 11.264-1.024 0-2.048 0-3.072-1.024-4.096-1.024-8.192-5.12-8.192-10.24 0-4.096 3.072-8.192 6.144-9.216zM451.584 491.52c0 2.048-1.024 3.072-1.024 5.12s0 3.072 1.024 5.12h-43.008l-1.024-10.24h44.032zM471.04 476.16c11.264 0 20.48 9.216 20.48 20.48s-9.216 20.48-20.48 20.48c-5.12 0-10.24-2.048-13.312-5.12H409.6l-1.024-10.24h43.008c0-2.048-1.024-3.072-1.024-5.12s0-3.072 1.024-5.12h-44.032l-1.024-10.24h51.2c3.072-3.072 8.192-5.12 13.312-5.12zM467.968 506.88c1.024 0 2.048 1.024 3.072 1.024 6.144 0 11.264-5.12 11.264-11.264 0-6.144-5.12-11.264-11.264-11.264-1.024 0-2.048 0-3.072 1.024-1.024 0-1.024 0-2.048 1.024-3.072 2.048-6.144 5.12-6.144 9.216 0 5.12 3.072 9.216 8.192 10.24zM471.04 435.2c-5.12 0-10.24-2.048-13.312-5.12h-56.32l-1.024-5.12v-5.12h51.2c0-2.048-1.024-3.072-1.024-5.12s0-3.072 1.024-5.12H399.36v-10.24h59.392c2.048-3.072 7.168-5.12 12.288-5.12 11.264 0 20.48 9.216 20.48 20.48s-9.216 20.48-20.48 20.48z m0-31.744c-1.024 0-2.048 0-3.072 1.024-1.024 0-1.024 0-2.048 1.024-3.072 2.048-6.144 5.12-6.144 9.216 0 5.12 3.072 9.216 8.192 10.24 1.024 0 2.048 1.024 3.072 1.024 6.144 0 11.264-5.12 11.264-11.264 0-6.144-5.12-11.264-11.264-11.264zM471.04 344.064c6.144 0 11.264-5.12 11.264-11.264s-5.12-11.264-11.264-11.264-11.264 5.12-11.264 11.264 5.12 11.264 11.264 11.264M471.04 332.8m-11.264 0a11.264 11.264 0 1 1 22.528 0 11.264 11.264 0 1 1-22.528 0ZM451.584 327.68c0 2.048-1.024 3.072-1.024 5.12s0 3.072 1.024 5.12h-59.392l-1.024-10.24h60.416zM471.04 353.28c-5.12 0-10.24-2.048-13.312-5.12h-64.512l-1.024-10.24h59.392c0-2.048-1.024-3.072-1.024-5.12s0-3.072 1.024-5.12h-60.416l-1.024-10.24h67.584c3.072-3.072 8.192-5.12 13.312-5.12 11.264 0 20.48 9.216 20.48 20.48s-9.216 20.48-20.48 20.48z m0-31.744c-6.144 0-11.264 5.12-11.264 11.264 0 6.144 5.12 11.264 11.264 11.264 6.144 0 11.264-5.12 11.264-11.264 0-6.144-5.12-11.264-11.264-11.264zM701.44 373.76C602.112 373.76 522.24 293.888 522.24 194.56S602.112 15.36 701.44 15.36 880.64 95.232 880.64 194.56 799.744 373.76 701.44 373.76z m144.384-129.024l-132.096-38.912 65.536 120.832c31.744-19.456 55.296-48.128 66.56-81.92zM769.024 332.8l-65.536-120.832L663.552 343.04c12.288 3.072 24.576 5.12 36.864 5.12 24.576 0 48.128-6.144 68.608-15.36z m-117.76 7.168l38.912-132.096-120.832 65.536c18.432 30.72 47.104 54.272 81.92 66.56zM563.2 262.144l120.832-65.536-132.096-38.912c-3.072 12.288-5.12 24.576-5.12 36.864 1.024 24.576 6.144 47.104 16.384 67.584z m-7.168-117.76l132.096 38.912-65.536-120.832c-31.744 19.456-55.296 48.128-66.56 81.92z m77.824-88.064l65.536 120.832L738.304 46.08c-12.288-3.072-24.576-5.12-36.864-5.12-24.576 0-47.104 6.144-67.584 15.36z m116.736-7.168l-38.912 132.096 120.832-65.536c-18.432-30.72-47.104-54.272-81.92-66.56z m88.064 77.824l-120.832 65.536L849.92 231.424c3.072-12.288 5.12-24.576 5.12-36.864 0-24.576-6.144-47.104-16.384-67.584zM701.44 251.904c-31.744 0-57.344-25.6-57.344-57.344s25.6-57.344 57.344-57.344 57.344 25.6 57.344 57.344-25.6 57.344-57.344 57.344zM701.44 240.64c25.6 0 46.08-20.48 46.08-46.08S727.04 148.48 701.44 148.48 655.36 168.96 655.36 194.56s20.48 46.08 46.08 46.08"  horiz-adv-x="1024" />

    
    <glyph glyph-name="tubiaom--copy" unicode="&#58895;" d="M2.136078 893.125278h1022.123446v-1021.125278H2.136078zM606.935704 362.07026199999996C602.014739 301.451554 568.057083 252.18201 522.840098 231.65968699999996l-0.209615-6.777557c54.749483 22.219207 92.749717 84.155496 89.994775 155.514486-2.465474 63.882715-36.932195 117.723866-84.524817 141.160837-0.529029-0.748626-1.048076-1.507233-1.597068-2.235895 51.934651-25.054002 86.061996-87.888642 80.432331-157.251296zM345.36593 390.088821C350.097243 448.142239 381.449682 495.734862 423.831871 517.6945450000001q-1.287636 1.78672-2.495418 3.673256c-49.988225-25.014076-83.846064-84.055679-81.220884-151.541778 2.315748-59.890046 32.779818-111.0062 75.860725-136.459469l0.139743 4.671423c-46.424767 27.908761-76.000468 87.110071-70.750107 152.050844zM482.683823 221.54825100000005l-0.159707-5.330214a118.242913 118.242913 0 0 1 19.5541 2.405584l0.17967 5.899169a112.204 112.204 0 0 0-19.574063-2.974539zM436.448707 228.32580800000005l-0.139743-4.65146a120.588607 120.588607 0 0 1 18.965181-5.360159l0.149725 4.841112a114.469841 114.469841 0 0 0-18.975163 5.170507zM429.032323-14.558271999999988zM522.630483 224.88212999999996l0.209615 6.777557c45.226966 20.542286 79.17464 69.791866 84.095606 130.410575 5.629664 69.372636-28.49768 132.197294-80.42235 157.251296 0.53901 0.728662 1.068039 1.487269 1.597068 2.235895 11.718486 16.729286 19.723788 38.80875 21.740087 63.603229C553.982922 636.476469 531.07498 681.91305 497.087379 693.831169l0.489102 16.080478a16.290092 16.290092 0 0 1-1.417398 7.196787 17.338168 17.338168 0 0 0-11.229384-4.332047c-5.489921-0.209615-10.341015 1.776738-12.976176 4.89102a15.970679 15.970679 0 0 1-1.597068-6.518033l-0.459157-15.1422c-34.047491-6.208601-62.425391-45.216984-66.477951-95.165282-2.475455-30.484033 4.611534-58.891878 17.897142-79.434164q1.217764-1.876555 2.495419-3.673256c-42.372207-21.959683-73.724646-69.602215-78.435997-127.655632-5.270324-64.930791 24.295395-124.132101 70.690218-151.990954l-0.139744-4.671424L409.248645 14.149023000000057l0.449175-0.648809a1.577105 1.577105 0 0 0 0.309432 0.389286c2.066207 1.806683 8.264826-2.994502 13.854564-10.760245a51.395641 51.395641 0 0 0 5.430031-9.342847l6.987172 229.897922 0.139743 4.65146a114.469841 114.469841 0 0 1 19.01509-5.170508l-0.149725-4.841112-7.98534-262.787538a17.967014 17.967014 0 0 1 0.079854-2.225913c2.355675 3.283971 7.725816 5.360159 13.864545 4.990837 5.889188-0.389285 10.840098-2.994502 13.036067-6.308418a16.379927 16.379927 0 0 1 0.249542 2.345693l7.985339 261.929115 0.159707 5.330214a112.204 112.204 0 0 1 19.574063 2.994502l-0.17967-5.89917L494.721722-22.314032999999995l3.383787 4.29212a53.901041 53.901041 0 0 0 4.202285 8.334698c4.29212 6.987172 9.203104 11.888174 11.888174 12.047881l1.706867 2.166023zM461.233205-41.73837100000003c-6.13873 0.409249-11.50887-1.66694-13.864546-4.990837a6.49807 6.49807 0 0 1-1.267673-3.503568c-0.249542-5.210434 6.128748-9.861894 14.24385-10.400904s14.892658 3.254026 15.1422 8.464459a6.85741 6.85741 0 0 1-1.207783 4.092487c-2.195968 3.393769-7.136897 5.949078-13.046048 6.338363z m11.978009-10.251179c-0.149725-3.064374-5.829298-5.180489-12.69669-4.731314s-12.317386 3.303934-12.167661 6.368308 5.829298 5.180489 12.69669 4.731314 12.327368-3.303934 12.177642-6.368308zM461.053535-45.62124200000005c-6.867392 0.449175-12.546965-1.66694-12.69669-4.731314s5.300269-5.919133 12.167661-6.368308 12.546965 1.66694 12.696689 4.731314-5.300269 5.919133-12.16766 6.368308zM502.307794-9.647288000000003a53.901041 53.901041 0 0 1-4.202285-8.334698c-1.826646-4.65146-2.26584-8.334698-0.848442-9.392756 2.195968-1.646976 7.985339 3.623348 12.976177 11.768394s7.246696 16.080477 5.050727 17.727454a1.636995 1.636995 0 0 1-1.117948 0.279487c-2.655125-0.159707-7.566109-5.030764-11.858229-12.047881z m11.608687 9.502554c1.287636-0.998167-1.078021-7.336531-5.300269-14.233868s-8.684057-11.698522-9.981674-10.7303 1.078021 7.336531 5.300269 14.233868 8.694038 11.688541 9.981674 10.720318zM503.944789-10.875034000000028c-4.222248-6.887355-6.587905-13.265645-5.300269-14.233868s5.759426 3.832963 9.981674 10.7303 6.587905 13.265645 5.300269 14.233868-5.769408-3.842945-9.981674-10.7303zM409.997271 13.889499999999998a1.577105 1.577105 0 0 1-0.309432-0.389286c-1.397434-2.345693 1.437361-9.622334 6.687721-16.908956 4.741295-6.577923 9.921784-10.979842 12.6368-11.119585a1.686903 1.686903 0 0 1 1.197801 0.35934c1.197801 0.998167 0.738644 4.082505-0.938277 7.98534a51.395641 51.395641 0 0 1-5.430031 9.342847c-5.609701 7.715834-11.778376 12.527001-13.844582 10.7303z m18.665731-25.902445c-1.217764-1.058057-5.989005 3.393769-10.750264 9.981674s-7.576091 12.726635-6.358326 13.794674 5.989005-3.393769 10.760245-9.981674 7.566109-12.736616 6.348345-13.794674zM411.554412 11.723476000000005c-1.217764-1.058057 1.627013-7.236714 6.358326-13.794673s9.542481-10.979842 10.750264-9.981675-1.627013 7.236714-6.358327 13.794674-9.532499 11.049713-10.750263 9.981674zM484.969626 712.766405a17.338168 17.338168 0 0 1 11.229384 4.332047 8.983507 8.983507 0 0 1 3.064374 6.837447c-0.229579 5.859243-6.987172 10.350996-15.112255 10.041564s-14.513354-5.320232-14.293758-11.169493a8.414551 8.414551 0 0 1 2.116115-5.150544c2.645144-3.114282 7.506219-5.100636 12.99614-4.891021zM472.133193 722.8978050000001c-0.129762 3.443678 5.330214 6.458143 12.197606 6.717667s12.546965-2.315748 12.676726-5.759426-5.330214-6.458143-12.197606-6.717667-12.556946 2.315748-12.676726 5.759426zM472.110422 722.885228a12.447148 6.248528 2.2099999999999933 1 1 24.875779 0.959979 12.447148 6.248528 2.2099999999999933 1 1-24.875779-0.959979Z"  horiz-adv-x="1026" />

    
    <glyph glyph-name="baojian" unicode="&#58885;" d="M569.6 300.8V755.2L512 864l-57.6-108.8v-454.4c12.8-6.4 38.4-12.8 57.6-12.8 19.2 0 44.8 6.4 57.6 12.8zM608 313.6c-19.2-32-57.6-51.2-96-51.2s-76.8 19.2-96 51.2l-70.4-70.4 70.4-70.4c19.2 32 57.6 51.2 96 51.2s76.8-19.2 96-51.2l70.4 70.4-70.4 70.4zM512-70.4m-25.6 0a25.6 25.6 0 1 1 51.2 0 25.6 25.6 0 1 1-51.2 0ZM473.6 192l12.8-236.8c6.4 6.4 19.2 6.4 25.6 6.4 12.8 0 19.2-6.4 32-6.4l6.4 236.8c-12.8 6.4-25.6 6.4-38.4 6.4s-25.6 0-38.4-6.4z"  horiz-adv-x="1024" />

    
    <glyph glyph-name="libao" unicode="&#59271;" d="M914.69065 585.369884H738.686429c22.187281 28.06207 35.333669 62.750034 35.333669 95.75364 0 29.888668-10.222808 55.588952-29.606235 74.465843-14.60562 14.184019-41.797881 31.095143-88.593581 31.095144-45.390702 0-83.141416-15.281001-112.297398-45.50429-13.260999-13.764464-23.483807-29.606236-31.573026-46.123388-8.090243 16.518176-18.300771 32.358924-31.557677 46.123388-29.127329 30.223288-66.908742 45.504289-112.271815 45.50429-46.822305 0-74.015589-16.910101-88.59358-31.095144-19.379334-18.875868-29.632842-44.577176-29.632842-74.465843 0-33.003606 13.174018-67.69157 35.365392-95.75364H109.308326V384h57.52709v-402.683487h690.328145V384h57.527089V585.369884z m-488.985889-143.815165v86.26147h172.590478v-86.26147H425.704761z m159.222033 259.681848c18.143183 18.82061 41.345581 27.948483 70.893488 27.948483 21.743167 0 38.539681-5.111404 48.485174-14.803118 10.05294-9.830883 12.189599-23.510413 12.189599-33.258408 0-44.267114-39.045193-95.75364-89.434736-95.75364h-85.280122c3.147684 34.577447 13.876004 85.503202 43.146597 115.866683z m-277.506784-20.113043c0 9.747995 2.134612 23.427525 12.219275 33.258408 9.943446 9.691714 26.712332 14.803118 48.481081 14.803118 29.493672 0 52.639789-9.127873 70.756366-27.80829 30.980533-32.021234 40.336603-84.099229 43.14455-116.006876h-85.135836c-50.39159 0-89.465436 51.486525-89.465436 95.75364zM166.835416 527.816189h201.343278v-86.26147H166.835416v86.26147z m57.527089-488.947004V384H425.704761v-345.130815H224.362505z m258.866275 0V384h57.54244v-345.130815h-57.54244z m316.407691 0H598.295239V384h201.341232v-345.130815z m57.52709 402.685534H655.820282v86.26147h201.343279v-86.26147z"  horiz-adv-x="1024" />

    
    <glyph glyph-name="yusanshouqi" unicode="&#59025;" d="M545.630486 835.424606h-0.841541V868.946004A34.674621 34.674621 0 0 1 510.971449 896a34.659037 34.659037 0 0 1-34.674621-34.659037v-25.916357L222.089 161.957752c14.165946 22.550192 50.601571 38.601814 93.333171 38.601815 46.752298 0 85.930724-19.19961 96.71492-45.100384 8.150484 19.573629 32.555184 35.329153 64.159737 41.843307v-168.121264a87.941073 87.941073 0 0 0-87.831984-87.769648 87.941073 87.941073 0 0 0-87.831983 87.831984 34.659037 34.659037 0 0 1-34.674622 34.674621A34.659037 34.659037 0 0 1 231.283618 29.243562a157.399403 157.399403 0 0 1 157.196811-157.243562 157.399403 157.399403 0 0 1 157.150057 157.181226V196.367444c29.609789-7.012845 52.128812-22.207342 59.920862-40.892677 10.784197 25.885189 49.978207 45.084799 96.699337 45.0848 50.352225 0 91.946186-22.285262 98.678517-51.240519h0.981798z"  horiz-adv-x="1024" />

    
    <glyph glyph-name="diejia" unicode="&#58942;" d="M512 839.6L1.2 620.9v-23.4L512 374l510.8 223.5v23.4zM512 318.4L160.8 472 1.2 396.4V373L512 149.5 1022.8 373v23.4L863.3 472zM512 97.3L160.8 250.9 1.2 175.3v-23.4L512-71.6l510.8 223.5v23.4l-159.5 75.6z"  horiz-adv-x="1024" />

    
    <glyph glyph-name="denglong" unicode="&#59074;" d="M582.62 331.034H441.38c-117.008 0-211.862 94.854-211.862 211.862s94.854 211.862 211.862 211.862h141.242c117.008 0 211.862-94.854 211.862-211.862-0.002-117.01-94.854-211.862-211.864-211.862zM441.38 542.896c0 114.842 65.716 208.112 147.662 211.538-2.152 0.064-4.252 0.324-6.42 0.324H441.38c-117.01 0-211.862-94.854-211.862-211.862s94.854-211.862 211.862-211.862h141.242c2.168 0 4.268 0.26 6.42 0.324-81.946 3.426-147.662 96.696-147.662 211.538zM512 896a17.652 17.652 0 0 1-17.656-17.656v-70.62h35.31v70.62A17.65 17.65 0 0 1 512 896zM441.38 136.828a17.652 17.652 0 0 0-17.656 17.656V207.45c0 9.75 7.896 17.656 17.656 17.656s17.656-7.906 17.656-17.656v-52.966a17.652 17.652 0 0 0-17.656-17.656zM476.69 48.552a35.31 35.31 0 1 1 70.62 0 35.31 35.31 0 1 1-70.62 0zM506.07 12.758c-17.362-2.824-29.38-19.128-29.38-36.716v-86.386A17.658 17.658 0 0 1 494.346-128h35.31a17.658 17.658 0 0 1 17.656 17.656v88.276c-0.002 21.446-19.12 38.424-41.242 34.826z m147.172 530.138c0 77.22-16.064 157.566-46.672 204.94-3.892 6.028-6.294 12.842-6.294 20.016V807.724A17.658 17.658 0 0 1 582.62 825.38H441.38a17.658 17.658 0 0 1-17.656-17.656v-39.872c0-7.174-2.402-13.99-6.294-20.016-30.608-47.374-46.672-127.72-46.672-204.94s16.064-157.566 46.672-204.94c3.892-6.028 6.294-12.842 6.294-20.016v-39.872a17.658 17.658 0 0 1 17.656-17.656h141.242a17.658 17.658 0 0 1 17.656 17.656V317.94c0 7.174 2.402 13.99 6.294 20.016 30.606 47.374 46.67 127.722 46.67 204.94zM481.104 754.758h61.794c35.414 0 75.034-90.604 75.034-211.862s-39.62-211.862-75.034-211.862h-61.794c-35.414 0-75.034 90.604-75.034 211.862s39.62 211.862 75.034 211.862zM423.724 242.758a17.656 17.656 0 1 1 35.312 0 17.656 17.656 0 1 1-35.312 0zM582.62 136.828a17.652 17.652 0 0 0-17.656 17.656V207.45a17.652 17.652 0 0 0 17.656 17.656 17.652 17.652 0 0 0 17.656-17.656v-52.966a17.65 17.65 0 0 0-17.656-17.656zM564.964 242.758a17.656 17.656 0 1 1 35.312 0 17.656 17.656 0 1 1-35.312 0zM512 83.862a17.652 17.652 0 0 0-17.656 17.656V207.45A17.652 17.652 0 0 0 512 225.106a17.652 17.652 0 0 0 17.656-17.656v-105.932A17.652 17.652 0 0 0 512 83.862zM494.344 242.758a17.656 17.656 0 1 1 35.312 0 17.656 17.656 0 1 1-35.312 0z"  horiz-adv-x="1024" />

    
    <glyph glyph-name="duiqi" unicode="&#58935;" d="M594 560.2c0 32-26 58-58 58H370.7v-289.9H536c32 0 58 26 58 58V560.2zM536 408c0-12-9.7-21.7-21.7-21.7h-85.5v174h85.5c12 0 21.7-9.7 21.7-21.7V408zM623 328.3c-16 0-29-13-29-29s13-29 29-29 29 13 29 29-13 29-29 29zM905.1 889H61.3v-56.2h56.3v-815.6h56.2v52.2l56.2-32.1v-104.5h56.3v72.3l56.2-32.1v-96.4h56.2v64.3l112.5-64.3 112.5 64.3v-64.3h56.2V-27l56.2 32.1v-72.3h56.2V37.2l56.2 32.1v-52.2h56.2V832.8h56.2V889h-55.8zM173.8 134.2V832.8h675v-698.6L511.3-58.7 173.8 134.2zM230.1 197.5l281.2-156.2 281.2 156.2v579H230.1v-579z m56.2 522.8h450v-489.7l-225-125-225 125V720.3z"  horiz-adv-x="1024" />

    


  </font>
</defs>
</svg>
